<svg width="318" height="114" viewBox="0 0 318 114" fill="none" xmlns="http://www.w3.org/2000/svg">
<path d="M248.914 90V108.88H249.874V90H248.914ZM250.834 90V108.88H253.714V90H250.834ZM254.674 90V108.88H257.554V90H254.674ZM258.514 90V108.88H259.474V90H258.514ZM262.354 90V108.88H263.314V90H262.354ZM264.289 90V108.88H267.169V90H264.289ZM268.129 90V108.88H269.089V90H268.129ZM270.049 90V108.88H271.009V90H270.049ZM273.889 90V108.88H274.849V90H273.889ZM275.809 90V108.88H278.689V90H275.809ZM279.664 90V108.88H282.544V90H279.664ZM283.504 90V108.88H286.384V90H283.504ZM287.344 90V108.88H288.304V90H287.344ZM291.184 90V108.88H292.144V90H291.184ZM293.104 90V108.88H294.064V90H293.104ZM295.039 90V108.88H297.919V90H295.039ZM298.879 90V108.88H299.839V90H298.879ZM300.799 90V108.88H303.679V90H300.799ZM306.559 90V108.88H307.519V90H306.559ZM308.479 90V108.88H309.439V90H308.479Z" fill="black"/>
<path d="M302.712 84V25.2H253.908V33.936H293.64V75.264H253.908V84H302.712ZM297.756 58.212V49.476H258.528V58.212H297.756Z" fill="black"/>
<path d="M15.288 84V25.2H49.644C53.116 25.2 56.28 26.012 59.136 27.636C62.048 29.204 64.372 31.36 66.108 34.104C67.844 36.848 68.712 39.9 68.712 43.26C68.712 46.788 67.76 50.008 65.856 52.92C63.952 55.776 61.432 58.072 58.296 59.808C55.16 61.488 51.716 62.328 47.964 62.328H24.36V84H15.288ZM24.36 53.592H47.124C49.252 53.592 51.212 53.116 53.004 52.164C54.852 51.212 56.308 49.952 57.372 48.384C58.492 46.816 59.052 45.108 59.052 43.26C59.052 41.524 58.492 39.956 57.372 38.556C56.308 37.156 54.852 36.036 53.004 35.196C51.212 34.356 49.252 33.936 47.124 33.936H24.36V53.592ZM82.2944 84L111.022 25.2H121.606L150.166 84H140.17L120.43 43.512C119.926 42.448 119.422 41.412 118.918 40.404C118.414 39.396 117.91 38.388 117.406 37.38C116.958 36.372 116.51 35.308 116.062 34.188C115.614 33.068 115.166 31.836 114.718 30.492L117.406 30.408C116.902 31.752 116.398 33.012 115.894 34.188C115.446 35.364 114.97 36.484 114.466 37.548C113.962 38.612 113.458 39.676 112.954 40.74C112.45 41.748 111.946 42.784 111.442 43.848L91.8704 84H82.2944ZM94.8104 70.224L98.4224 61.488H133.282L134.71 70.224H94.8104ZM200.958 84.84C196.254 84.84 191.83 84.14 187.686 82.74C183.598 81.284 179.986 79.24 176.85 76.608C173.77 73.92 171.362 70.728 169.626 67.032C167.89 63.28 167.022 59.136 167.022 54.6C167.022 50.288 167.918 46.312 169.71 42.672C171.558 39.032 174.05 35.868 177.186 33.18C180.322 30.492 183.934 28.42 188.022 26.964C192.11 25.452 196.422 24.696 200.958 24.696C204.766 24.696 208.406 25.2 211.878 26.208C215.35 27.16 218.486 28.392 221.286 29.904C224.142 31.36 226.41 32.9 228.09 34.524L222.714 42.168C220.698 40.488 218.542 39.004 216.246 37.716C213.95 36.428 211.458 35.42 208.77 34.692C206.138 33.964 203.254 33.6 200.118 33.6C197.15 33.6 194.238 34.104 191.382 35.112C188.582 36.064 186.034 37.464 183.738 39.312C181.442 41.104 179.622 43.316 178.278 45.948C176.934 48.524 176.262 51.408 176.262 54.6C176.262 58.128 176.962 61.236 178.362 63.924C179.762 66.556 181.666 68.768 184.074 70.56C186.482 72.352 189.198 73.724 192.222 74.676C195.246 75.572 198.382 76.02 201.63 76.02C204.99 76.02 207.986 75.6 210.618 74.76C213.25 73.864 215.602 72.772 217.674 71.484C219.746 70.196 221.622 68.936 223.302 67.704L227.67 75.264C226.102 76.552 223.946 77.952 221.202 79.464C218.514 80.976 215.434 82.264 211.962 83.328C208.546 84.336 204.878 84.84 200.958 84.84Z" fill="black"/>
<path d="M13.8399 108V92.4H7.23986V91.2H21.8079V92.4H15.0399V108H13.8399ZM28.5785 108V91.2H41.7065V92.4H29.7785V106.8H41.6105V108H28.5785ZM29.2265 99.936V98.736H40.3385V99.936H29.2265ZM58.8558 108.24C57.3518 108.24 55.9678 108.024 54.7038 107.592C53.4558 107.16 52.3678 106.552 51.4398 105.768C50.5278 104.984 49.8158 104.064 49.3038 103.008C48.7918 101.952 48.5358 100.8 48.5358 99.552C48.5358 98.32 48.7758 97.192 49.2558 96.168C49.7518 95.144 50.4478 94.248 51.3438 93.48C52.2558 92.712 53.3198 92.12 54.5358 91.704C55.7518 91.288 57.0878 91.08 58.5438 91.08C59.5038 91.08 60.4478 91.208 61.3758 91.464C62.3198 91.72 63.1918 92.056 63.9918 92.472C64.7918 92.888 65.4478 93.36 65.9598 93.888L65.3118 95.064C64.8638 94.52 64.2798 94.04 63.5598 93.624C62.8398 93.208 62.0398 92.88 61.1598 92.64C60.2798 92.384 59.3838 92.256 58.4718 92.256C57.2238 92.256 56.0718 92.44 55.0158 92.808C53.9758 93.16 53.0638 93.664 52.2798 94.32C51.4958 94.96 50.8878 95.728 50.4558 96.624C50.0238 97.52 49.8078 98.496 49.8078 99.552C49.8078 100.64 50.0318 101.648 50.4798 102.576C50.9278 103.504 51.5598 104.304 52.3758 104.976C53.2078 105.632 54.1598 106.144 55.2318 106.512C56.3038 106.88 57.4798 107.064 58.7598 107.064C59.7038 107.064 60.5918 106.944 61.4238 106.704C62.2718 106.464 63.0238 106.144 63.6798 105.744C64.3358 105.344 64.8798 104.912 65.3118 104.448L65.8878 105.528C65.4078 105.992 64.7918 106.432 64.0398 106.848C63.2878 107.264 62.4718 107.6 61.5918 107.856C60.7118 108.112 59.7998 108.24 58.8558 108.24ZM73.4379 108V91.2H74.7579L89.9739 106.704L89.7339 107.328C89.7179 107.088 89.7019 106.616 89.6859 105.912C89.6859 105.208 89.6859 104.416 89.6859 103.536C89.6859 102.64 89.6779 101.784 89.6619 100.968C89.6619 100.136 89.6619 99.44 89.6619 98.88C89.6619 98.304 89.6539 98.008 89.6379 97.992V91.2H90.8379V108H89.4459L74.3499 92.64L74.4459 91.968C74.4459 92.08 74.4459 92.368 74.4459 92.832C74.4619 93.28 74.4779 93.824 74.4939 94.464C74.5099 95.104 74.5259 95.768 74.5419 96.456C74.5739 97.144 74.5979 97.784 74.6139 98.376C74.6299 98.952 74.6379 99.408 74.6379 99.744V108H73.4379ZM108.727 108.24C107.223 108.24 105.847 108.024 104.599 107.592C103.367 107.144 102.295 106.544 101.383 105.792C100.487 105.024 99.7909 104.12 99.2949 103.08C98.8149 102.024 98.5749 100.888 98.5749 99.672C98.5749 98.456 98.8149 97.328 99.2949 96.288C99.7909 95.248 100.487 94.344 101.383 93.576C102.295 92.792 103.367 92.184 104.599 91.752C105.847 91.304 107.223 91.08 108.727 91.08C110.215 91.08 111.583 91.296 112.831 91.728C114.079 92.16 115.151 92.768 116.047 93.552C116.943 94.32 117.639 95.232 118.135 96.288C118.647 97.328 118.903 98.456 118.903 99.672C118.903 100.904 118.647 102.048 118.135 103.104C117.639 104.144 116.943 105.048 116.047 105.816C115.151 106.568 114.079 107.16 112.831 107.592C111.583 108.024 110.215 108.24 108.727 108.24ZM108.727 107.04C110.023 107.04 111.215 106.856 112.303 106.488C113.407 106.12 114.351 105.6 115.135 104.928C115.919 104.256 116.527 103.48 116.959 102.6C117.407 101.704 117.631 100.728 117.631 99.672C117.631 98.632 117.407 97.656 116.959 96.744C116.527 95.832 115.919 95.048 115.135 94.392C114.351 93.736 113.407 93.224 112.303 92.856C111.215 92.472 110.023 92.28 108.727 92.28C107.415 92.28 106.215 92.472 105.127 92.856C104.039 93.224 103.103 93.736 102.319 94.392C101.535 95.048 100.927 95.832 100.495 96.744C100.063 97.656 99.8469 98.632 99.8469 99.672C99.8469 100.728 100.063 101.704 100.495 102.6C100.927 103.48 101.535 104.256 102.319 104.928C103.103 105.6 104.039 106.12 105.127 106.488C106.215 106.856 107.415 107.04 108.727 107.04ZM126.641 108V91.2H127.841V106.8H139.433V108H126.641ZM154.219 108.24C152.715 108.24 151.339 108.024 150.091 107.592C148.859 107.144 147.787 106.544 146.875 105.792C145.979 105.024 145.283 104.12 144.787 103.08C144.307 102.024 144.067 100.888 144.067 99.672C144.067 98.456 144.307 97.328 144.787 96.288C145.283 95.248 145.979 94.344 146.875 93.576C147.787 92.792 148.859 92.184 150.091 91.752C151.339 91.304 152.715 91.08 154.219 91.08C155.707 91.08 157.075 91.296 158.323 91.728C159.571 92.16 160.643 92.768 161.539 93.552C162.435 94.32 163.131 95.232 163.627 96.288C164.139 97.328 164.395 98.456 164.395 99.672C164.395 100.904 164.139 102.048 163.627 103.104C163.131 104.144 162.435 105.048 161.539 105.816C160.643 106.568 159.571 107.16 158.323 107.592C157.075 108.024 155.707 108.24 154.219 108.24ZM154.219 107.04C155.515 107.04 156.707 106.856 157.795 106.488C158.899 106.12 159.843 105.6 160.627 104.928C161.411 104.256 162.019 103.48 162.451 102.6C162.899 101.704 163.123 100.728 163.123 99.672C163.123 98.632 162.899 97.656 162.451 96.744C162.019 95.832 161.411 95.048 160.627 94.392C159.843 93.736 158.899 93.224 157.795 92.856C156.707 92.472 155.515 92.28 154.219 92.28C152.907 92.28 151.707 92.472 150.619 92.856C149.531 93.224 148.595 93.736 147.811 94.392C147.027 95.048 146.419 95.832 145.987 96.744C145.555 97.656 145.339 98.632 145.339 99.672C145.339 100.728 145.555 101.704 145.987 102.6C146.419 103.48 147.027 104.256 147.811 104.928C148.595 105.6 149.531 106.12 150.619 106.488C151.707 106.856 152.907 107.04 154.219 107.04ZM181.109 108.24C179.605 108.24 178.221 108.04 176.957 107.64C175.693 107.224 174.589 106.64 173.645 105.888C172.701 105.136 171.965 104.232 171.437 103.176C170.909 102.12 170.645 100.936 170.645 99.624C170.645 98.408 170.901 97.28 171.413 96.24C171.941 95.2 172.669 94.296 173.597 93.528C174.525 92.76 175.621 92.16 176.885 91.728C178.149 91.296 179.525 91.08 181.013 91.08C182.053 91.08 183.061 91.2 184.037 91.44C185.029 91.68 185.925 91.992 186.725 92.376C187.525 92.744 188.149 93.168 188.597 93.648L187.925 94.632C187.429 94.2 186.805 93.808 186.053 93.456C185.301 93.104 184.485 92.824 183.605 92.616C182.741 92.392 181.893 92.28 181.061 92.28C179.765 92.28 178.557 92.464 177.437 92.832C176.333 93.2 175.365 93.712 174.533 94.368C173.717 95.024 173.085 95.8 172.637 96.696C172.189 97.592 171.965 98.568 171.965 99.624C171.965 100.76 172.197 101.784 172.661 102.696C173.125 103.608 173.773 104.392 174.605 105.048C175.453 105.688 176.429 106.184 177.533 106.536C178.653 106.872 179.869 107.04 181.181 107.04C182.301 107.04 183.357 106.888 184.349 106.584C185.357 106.28 186.237 105.872 186.989 105.36C187.757 104.832 188.357 104.248 188.789 103.608C189.221 102.952 189.429 102.28 189.413 101.592V100.68L189.941 101.448H181.109V100.272H190.565C190.581 100.336 190.589 100.448 190.589 100.608C190.605 100.752 190.613 100.904 190.613 101.064C190.629 101.208 190.637 101.336 190.637 101.448C190.637 102.312 190.389 103.152 189.893 103.968C189.413 104.784 188.733 105.512 187.853 106.152C186.973 106.792 185.957 107.304 184.805 107.688C183.653 108.056 182.421 108.24 181.109 108.24ZM197.63 108V106.752H202.022V92.448H197.63V91.2H207.614V92.448H203.222V106.752H207.614V108H197.63ZM214.36 108L222.52 91.2H224.248L232.336 108H230.968L224.704 94.944C224.432 94.304 224.224 93.84 224.08 93.552C223.952 93.264 223.84 93.048 223.744 92.904C223.664 92.76 223.584 92.6 223.504 92.424C223.424 92.232 223.312 91.92 223.168 91.488H223.504C223.328 92.016 223.184 92.4 223.072 92.64C222.976 92.864 222.88 93.056 222.784 93.216C222.688 93.376 222.576 93.584 222.448 93.84C222.32 94.096 222.136 94.512 221.896 95.088L215.632 108H214.36ZM217.576 103.152L218.104 101.976H228.688L228.952 103.152H217.576Z" fill="black"/>
</svg>
